<mxfile host="app.diagrams.net" agent="Mozilla/5.0 (Windows NT 10.0; Win64; x64) AppleWebKit/537.36 (KHTML, like Gecko) Chrome/134.0.0.0 Safari/537.36" version="26.1.1">
  <diagram name="Page-1" id="kOukmYWhafNu0aRhIILM">
    <mxGraphModel dx="1050" dy="522" grid="1" gridSize="10" guides="1" tooltips="1" connect="1" arrows="1" fold="1" page="1" pageScale="1" pageWidth="827" pageHeight="1169" math="0" shadow="0">
      <root>
        <mxCell id="0" />
        <mxCell id="1" parent="0" />
        <mxCell id="NZSZ36y6xXFvk6N4jul3-1" value="" style="shape=image;verticalLabelPosition=bottom;labelBackgroundColor=default;verticalAlign=top;aspect=fixed;imageAspect=0;editableCssRules=.*;image=data:image/svg+xml,PHN2ZyB4bWxucz0iaHR0cDovL3d3dy53My5vcmcvMjAwMC9zdmciIHZpZXdCb3g9Ii0xIC0xIDYzMiA4MDIiIHdpZHRoPSI2MzIiIGhlaWdodD0iODAyIj4mI3hhOyAgJiN4YTsgIDxyZWN0IGZpbGw9IndoaXRlIiBoZWlnaHQ9IjgwMCIgd2lkdGg9IjYwMCIvPiYjeGE7ICAmI3hhOyAgJiN4YTsgIDxyZWN0IHN0cm9rZS13aWR0aD0iMiIgc3Ryb2tlPSJibGFjayIgZmlsbD0id2hpdGUiIHJ5PSI1IiByeD0iNSIgaGVpZ2h0PSI1MCIgd2lkdGg9IjEwMCIgeT0iNTAiIHg9IjI1MCIvPiYjeGE7ICA8dGV4dCBmb250LXNpemU9IjE2IiBmb250LWZhbWlseT0iQXJpYWwiIHRleHQtYW5jaG9yPSJtaWRkbGUiIHk9IjgwIiB4PSIzMDAiPkLhuq90IMSR4bqndTwvdGV4dD4mI3hhOyAgJiN4YTsgICYjeGE7ICA8cmVjdCBzdHJva2Utd2lkdGg9IjIiIHN0cm9rZT0iYmxhY2siIGZpbGw9IndoaXRlIiByeT0iMCIgcng9IjAiIGhlaWdodD0iNjAiIHdpZHRoPSIyMDAiIHk9IjEzMCIgeD0iMjAwIi8+JiN4YTsgIDx0ZXh0IGZvbnQtc2l6ZT0iMTYiIGZvbnQtZmFtaWx5PSJBcmlhbCIgdGV4dC1hbmNob3I9Im1pZGRsZSIgeT0iMTU1IiB4PSIzMDAiPk5o4bqtcCBo4buHIHBoxrDGoW5nIHRyw6xuaDwvdGV4dD4mI3hhOyAgPHRleHQgZm9udC1zaXplPSIxNiIgZm9udC1mYW1pbHk9IkFyaWFsIiB0ZXh0LWFuY2hvcj0ibWlkZGxlIiB5PSIxODAiIHg9IjMwMCI+YeKCgXggKyBi4oKBeSA9IGPigoE8L3RleHQ+JiN4YTsgIDx0ZXh0IGZvbnQtc2l6ZT0iMTYiIGZvbnQtZmFtaWx5PSJBcmlhbCIgdGV4dC1hbmNob3I9Im1pZGRsZSIgeT0iMjAwIiB4PSIzMDAiPmHigoJ4ICsgYuKCgnkgPSBj4oKCPC90ZXh0PiYjeGE7ICAmI3hhOyAgJiN4YTsgIDxyZWN0IHN0cm9rZS13aWR0aD0iMiIgc3Ryb2tlPSJibGFjayIgZmlsbD0id2hpdGUiIHJ5PSIwIiByeD0iMCIgaGVpZ2h0PSI4MCIgd2lkdGg9IjIwMCIgeT0iMjIwIiB4PSIyMDAiLz4mI3hhOyAgPHRleHQgZm9udC1zaXplPSIxNiIgZm9udC1mYW1pbHk9IkFyaWFsIiB0ZXh0LWFuY2hvcj0ibWlkZGxlIiB5PSIyNDUiIHg9IjMwMCI+VMOtbmggxJHhu4tuaCB0aOG7qWM8L3RleHQ+JiN4YTsgIDx0ZXh0IGZvbnQtc2l6ZT0iMTYiIGZvbnQtZmFtaWx5PSJBcmlhbCIgdGV4dC1hbmNob3I9Im1pZGRsZSIgeT0iMjcwIiB4PSIzMDAiPkQgPSBh4oKBYuKCgiAtIGHigoJi4oKBPC90ZXh0PiYjeGE7ICA8dGV4dCBmb250LXNpemU9IjE2IiBmb250LWZhbWlseT0iQXJpYWwiIHRleHQtYW5jaG9yPSJtaWRkbGUiIHk9IjI5MCIgeD0iMzAwIj5E4oKBID0gY+KCgWLigoIgLSBj4oKCYuKCgTwvdGV4dD4mI3hhOyAgPHRleHQgZm9udC1zaXplPSIxNiIgZm9udC1mYW1pbHk9IkFyaWFsIiB0ZXh0LWFuY2hvcj0ibWlkZGxlIiB5PSIzMTAiIHg9IjMwMCI+ROKCgiA9IGHigoFj4oKCIC0gYeKCgmPigoE8L3RleHQ+JiN4YTsgICYjeGE7ICAmI3hhOyAgPHBvbHlnb24gc3Ryb2tlLXdpZHRoPSIyIiBzdHJva2U9ImJsYWNrIiBmaWxsPSJ3aGl0ZSIgcG9pbnRzPSIzMDAsMzMwIDM1MCwzNzAgMzAwLDQxMCAyNTAsMzcwIi8+JiN4YTsgIDx0ZXh0IGZvbnQtc2l6ZT0iMTYiIGZvbnQtZmFtaWx5PSJBcmlhbCIgdGV4dC1hbmNob3I9Im1pZGRsZSIgeT0iMzc1IiB4PSIzMDAiPkQgPSAwPzwvdGV4dD4mI3hhOyAgJiN4YTsgICYjeGE7ICA8cG9seWdvbiBzdHJva2Utd2lkdGg9IjIiIHN0cm9rZT0iYmxhY2siIGZpbGw9IndoaXRlIiBwb2ludHM9IjQ1MCwzNzAgNTAwLDQxMCA0NTAsNDUwIDQwMCw0MTAiLz4mI3hhOyAgPHRleHQgZm9udC1zaXplPSIxNCIgZm9udC1mYW1pbHk9IkFyaWFsIiB0ZXh0LWFuY2hvcj0ibWlkZGxlIiB5PSI0MDUiIHg9IjQ1MCI+ROKCgSA9IETigoIgPSAwPzwvdGV4dD4mI3hhOyAgPHRleHQgZm9udC1zaXplPSIxMiIgZm9udC1mYW1pbHk9IkFyaWFsIiB0ZXh0LWFuY2hvcj0ibWlkZGxlIiB5PSI0MjUiIHg9IjQ1MCI+KGHigoEvYeKCgiA9IGLigoEvYuKCgiA9IGPigoEvY+KCgik8L3RleHQ+JiN4YTsgICYjeGE7ICAmI3hhOyAgPHJlY3Qgc3Ryb2tlLXdpZHRoPSIyIiBzdHJva2U9ImJsYWNrIiBmaWxsPSJ3aGl0ZSIgcnk9IjAiIHJ4PSIwIiBoZWlnaHQ9IjcwIiB3aWR0aD0iMjAwIiB5PSI0NDAiIHg9IjIwMCIvPiYjeGE7ICA8dGV4dCBmb250LXNpemU9IjE2IiBmb250LWZhbWlseT0iQXJpYWwiIHRleHQtYW5jaG9yPSJtaWRkbGUiIHk9IjQ2NSIgeD0iMzAwIj5Uw61uaCBuZ2hp4buHbTwvdGV4dD4mI3hhOyAgPHRleHQgZm9udC1zaXplPSIxNiIgZm9udC1mYW1pbHk9IkFyaWFsIiB0ZXh0LWFuY2hvcj0ibWlkZGxlIiB5PSI0OTAiIHg9IjMwMCI+eCA9IETigoEvRDwvdGV4dD4mI3hhOyAgPHRleHQgZm9udC1zaXplPSIxNiIgZm9udC1mYW1pbHk9IkFyaWFsIiB0ZXh0LWFuY2hvcj0ibWlkZGxlIiB5PSI1MTAiIHg9IjMwMCI+eSA9IETigoIvRDwvdGV4dD4mI3hhOyAgJiN4YTsgICYjeGE7ICA8cmVjdCBzdHJva2Utd2lkdGg9IjIiIHN0cm9rZT0iYmxhY2siIGZpbGw9IndoaXRlIiByeT0iMCIgcng9IjAiIGhlaWdodD0iNTAiIHdpZHRoPSIyMDAiIHk9IjU0MCIgeD0iMjAwIi8+JiN4YTsgIDx0ZXh0IGZvbnQtc2l6ZT0iMTYiIGZvbnQtZmFtaWx5PSJBcmlhbCIgdGV4dC1hbmNob3I9Im1pZGRsZSIgeT0iNTcwIiB4PSIzMDAiPlh14bqldCBuZ2hp4buHbSB4LCB5PC90ZXh0PiYjeGE7ICAmI3hhOyAgJiN4YTsgIDxyZWN0IHN0cm9rZS13aWR0aD0iMiIgc3Ryb2tlPSJibGFjayIgZmlsbD0id2hpdGUiIHJ5PSIwIiByeD0iMCIgaGVpZ2h0PSI1MCIgd2lkdGg9IjEwMCIgeT0iNDgwIiB4PSI0MDAiLz4mI3hhOyAgPHRleHQgZm9udC1zaXplPSIxNCIgZm9udC1mYW1pbHk9IkFyaWFsIiB0ZXh0LWFuY2hvcj0ibWlkZGxlIiB5PSI1MTAiIHg9IjQ1MCI+VsO0IHPhu5EgbmdoaeG7h208L3RleHQ+JiN4YTsgICYjeGE7ICAmI3hhOyAgPHJlY3Qgc3Ryb2tlLXdpZHRoPSIyIiBzdHJva2U9ImJsYWNrIiBmaWxsPSJ3aGl0ZSIgcnk9IjAiIHJ4PSIwIiBoZWlnaHQ9IjUwIiB3aWR0aD0iMTAwIiB5PSI0MTAiIHg9IjUzMCIvPiYjeGE7ICA8dGV4dCBmb250LXNpemU9IjE0IiBmb250LWZhbWlseT0iQXJpYWwiIHRleHQtYW5jaG9yPSJtaWRkbGUiIHk9IjQ0MCIgeD0iNTgwIj5Ww7QgbmdoaeG7h208L3RleHQ+JiN4YTsgICYjeGE7ICAmI3hhOyAgPHJlY3Qgc3Ryb2tlLXdpZHRoPSIyIiBzdHJva2U9ImJsYWNrIiBmaWxsPSJ3aGl0ZSIgcnk9IjUiIHJ4PSI1IiBoZWlnaHQ9IjUwIiB3aWR0aD0iMTAwIiB5PSI2MjAiIHg9IjI1MCIvPiYjeGE7ICA8dGV4dCBmb250LXNpemU9IjE2IiBmb250LWZhbWlseT0iQXJpYWwiIHRleHQtYW5jaG9yPSJtaWRkbGUiIHk9IjY1MCIgeD0iMzAwIj5L4bq/dCB0aMO6YzwvdGV4dD4mI3hhOyAgJiN4YTsgICYjeGE7ICAmI3hhOyAgPGxpbmUgc3Ryb2tlLXdpZHRoPSIyIiBzdHJva2U9ImJsYWNrIiB5Mj0iMTMwIiB4Mj0iMzAwIiB5MT0iMTAwIiB4MT0iMzAwIi8+JiN4YTsgIDxwb2x5Z29uIGZpbGw9ImJsYWNrIiBwb2ludHM9IjMwMCwxMzAgMjk1LDEyMCAzMDUsMTIwIi8+JiN4YTsgICYjeGE7ICAmI3hhOyAgPGxpbmUgc3Ryb2tlLXdpZHRoPSIyIiBzdHJva2U9ImJsYWNrIiB5Mj0iMjIwIiB4Mj0iMzAwIiB5MT0iMTkwIiB4MT0iMzAwIi8+JiN4YTsgIDxwb2x5Z29uIGZpbGw9ImJsYWNrIiBwb2ludHM9IjMwMCwyMjAgMjk1LDIxMCAzMDUsMjEwIi8+JiN4YTsgICYjeGE7ICAmI3hhOyAgPGxpbmUgc3Ryb2tlLXdpZHRoPSIyIiBzdHJva2U9ImJsYWNrIiB5Mj0iMzMwIiB4Mj0iMzAwIiB5MT0iMzAwIiB4MT0iMzAwIi8+JiN4YTsgIDxwb2x5Z29uIGZpbGw9ImJsYWNrIiBwb2ludHM9IjMwMCwzMzAgMjk1LDMyMCAzMDUsMzIwIi8+JiN4YTsgICYjeGE7ICAmI3hhOyAgPGxpbmUgc3Ryb2tlLXdpZHRoPSIyIiBzdHJva2U9ImJsYWNrIiB5Mj0iMzcwIiB4Mj0iNDAwIiB5MT0iMzcwIiB4MT0iMzUwIi8+JiN4YTsgIDxwb2x5Z29uIGZpbGw9ImJsYWNrIiBwb2ludHM9IjQwMCwzNzAgMzkwLDM2NSAzOTAsMzc1Ii8+JiN4YTsgIDx0ZXh0IGZvbnQtc2l6ZT0iMTQiIGZvbnQtZmFtaWx5PSJBcmlhbCIgdGV4dC1hbmNob3I9Im1pZGRsZSIgeT0iMzYwIiB4PSIzNzAiPkPDszwvdGV4dD4mI3hhOyAgJiN4YTsgICYjeGE7ICA8bGluZSBzdHJva2Utd2lkdGg9IjIiIHN0cm9rZT0iYmxhY2siIHkyPSI0NDAiIHgyPSIzMDAiIHkxPSI0MTAiIHgxPSIzMDAiLz4mI3hhOyAgPHBvbHlnb24gZmlsbD0iYmxhY2siIHBvaW50cz0iMzAwLDQ0MCAyOTUsNDMwIDMwNSw0MzAiLz4mI3hhOyAgPHRleHQgZm9udC1zaXplPSIxNCIgZm9udC1mYW1pbHk9IkFyaWFsIiB0ZXh0LWFuY2hvcj0ibWlkZGxlIiB5PSI0MjUiIHg9IjMyMCI+S2jDtG5nPC90ZXh0PiYjeGE7ICAmI3hhOyAgJiN4YTsgIDxsaW5lIHN0cm9rZS13aWR0aD0iMiIgc3Ryb2tlPSJibGFjayIgeTI9IjU0MCIgeDI9IjMwMCIgeTE9IjUxMCIgeDE9IjMwMCIvPiYjeGE7ICA8cG9seWdvbiBmaWxsPSJibGFjayIgcG9pbnRzPSIzMDAsNTQwIDI5NSw1MzAgMzA1LDUzMCIvPiYjeGE7ICAmI3hhOyAgJiN4YTsgIDxsaW5lIHN0cm9rZS13aWR0aD0iMiIgc3Ryb2tlPSJibGFjayIgeTI9IjYyMCIgeDI9IjMwMCIgeTE9IjU5MCIgeDE9IjMwMCIvPiYjeGE7ICA8cG9seWdvbiBmaWxsPSJibGFjayIgcG9pbnRzPSIzMDAsNjIwIDI5NSw2MTAgMzA1LDYxMCIvPiYjeGE7ICAmI3hhOyAgJiN4YTsgIDxsaW5lIHN0cm9rZS13aWR0aD0iMiIgc3Ryb2tlPSJibGFjayIgeTI9IjQ4MCIgeDI9IjQ1MCIgeTE9IjQ1MCIgeDE9IjQ1MCIvPiYjeGE7ICA8cG9seWdvbiBmaWxsPSJibGFjayIgcG9pbnRzPSI0NTAsNDgwIDQ0NSw0NzAgNDU1LDQ3MCIvPiYjeGE7ICA8dGV4dCBmb250LXNpemU9IjE0IiBmb250LWZhbWlseT0iQXJpYWwiIHRleHQtYW5jaG9yPSJtaWRkbGUiIHk9IjQ2NSIgeD0iNDcwIj5Dw7M8L3RleHQ+JiN4YTsgICYjeGE7ICAmI3hhOyAgPGxpbmUgc3Ryb2tlLXdpZHRoPSIyIiBzdHJva2U9ImJsYWNrIiB5Mj0iNDEwIiB4Mj0iNTMwIiB5MT0iNDEwIiB4MT0iNTAwIi8+JiN4YTsgIDxwb2x5Z29uIGZpbGw9ImJsYWNrIiBwb2ludHM9IjUzMCw0MTAgNTIwLDQwNSA1MjAsNDE1Ii8+JiN4YTsgIDx0ZXh0IGZvbnQtc2l6ZT0iMTQiIGZvbnQtZmFtaWx5PSJBcmlhbCIgdGV4dC1hbmNob3I9Im1pZGRsZSIgeT0iNDAwIiB4PSI1MTUiPktow7RuZzwvdGV4dD4mI3hhOyAgJiN4YTsgICYjeGE7ICA8bGluZSBzdHJva2Utd2lkdGg9IjIiIHN0cm9rZT0iYmxhY2siIHkyPSI1OTAiIHgyPSI0NTAiIHkxPSI1MzAiIHgxPSI0NTAiLz4mI3hhOyAgPGxpbmUgc3Ryb2tlLXdpZHRoPSIyIiBzdHJva2U9ImJsYWNrIiB5Mj0iNTkwIiB4Mj0iMzAwIiB5MT0iNTkwIiB4MT0iNDUwIi8+JiN4YTsgIDxwb2x5Z29uIGZpbGw9ImJsYWNrIiBwb2ludHM9IjMwMCw1OTAgMzEwLDU4NSAzMTAsNTk1Ii8+JiN4YTsgICYjeGE7ICAmI3hhOyAgPGxpbmUgc3Ryb2tlLXdpZHRoPSIyIiBzdHJva2U9ImJsYWNrIiB5Mj0iNTkwIiB4Mj0iNTgwIiB5MT0iNDYwIiB4MT0iNTgwIi8+JiN4YTsgIDxsaW5lIHN0cm9rZS13aWR0aD0iMiIgc3Ryb2tlPSJibGFjayIgeTI9IjU5MCIgeDI9IjQ1MCIgeTE9IjU5MCIgeDE9IjU4MCIvPiYjeGE7PC9zdmc+;" vertex="1" parent="1">
          <mxGeometry x="70" y="300" width="632" height="802" as="geometry" />
        </mxCell>
      </root>
    </mxGraphModel>
  </diagram>
</mxfile>
